<svg width="350" height="30" fill="none" xmlns="http://www.w3.org/2000/svg"><path d="M348.126 25.65c-.946 0-1.892.945-1.892 1.89 0 1.181.946 1.89 1.892 1.89s1.892-.945 1.892-1.89c0-1.18-.709-1.89-1.892-1.89Zm-67.399 3.78h8.514v-.709l-.946-.236c-.946-.236-1.182-.708-1.182-1.89V15.258h1.891c1.183 0 1.892.236 1.892 2.835l.237 5.433c.236 4.724 1.655 6.141 4.02 6.141 2.365 0 3.074-1.653 3.074-4.015v-.945h-.946v.708c0 1.654-.236 2.599-.709 2.599s-.473-.473-.709-2.363l-.237-3.779c-.236-4.96-.946-6.614-4.73-7.323 3.548-.945 5.676-3.543 5.676-7.086 0-4.725-3.784-7.087-7.331-7.087h-14.426v.709l.71.236c1.419.236 1.655 1.181 1.655 4.488v17.008c0 3.78-.946 5.67-3.547 5.67-2.129 0-3.311-.946-3.311-5.198V3.21c0-1.182.473-1.418 1.419-1.654l1.182-.236V.61h-8.75v.709l.946.236c.946.236 1.183.472 1.183 1.654v19.842c0 4.488 2.601 6.85 6.385 6.85 4.02 0 5.912-2.362 5.912-7.086V4.39c0-2.363.473-3.071 2.365-3.071 1.419 0 2.128.472 2.128 1.89v23.622c0 1.18-.473 1.653-1.182 1.89l-.946.236v.708h-.237v-.236Zm56.994-26.22c0-1.182.473-1.654 1.182-1.654l1.182-.236V.61h-8.749v.709l.945.236c.946.236 1.183.472 1.183 1.654v23.858c0 1.181-.473 1.653-1.656 1.653-1.418 0-1.655-.472-2.364-3.07L324.004.139h-1.655l-5.203 24.567c-.473 2.834-.946 3.307-2.128 3.78l-.71.235v.71h5.913v-.71l-.946-.236c-1.183-.236-1.656-.945-.946-4.016l3.074-15.59 3.311 16.772c.473 2.362.473 2.834-1.419 3.307l-.946.236v.709h22.466v-9.685h-.709c-.473 4.488-1.419 8.503-4.966 8.503h-1.656l.237-25.511Zm-13.48 18.425v-1.181h-5.676l-.236 1.18h5.912ZM300.592 3.682v20.315c0 3.07 0 4.488-1.419 4.724l-.709.237v.708h6.149v-.708c-2.602-.473-2.602-1.418-2.602-4.489V5.1l-.946-.944 10.406 25.511h1.655V6.044c0-3.543 0-4.252 1.655-4.724l.473-.236v-.71h-6.385v.71l.71.236c2.128.472 2.128 1.181 2.128 4.488v14.646l.473-.236-7.804-20.08h-5.912v.71l.473.236c.473.236.946.945 1.655 2.598Zm-13.479-2.598h1.655c1.655 0 3.311 1.18 3.311 6.614 0 5.67-1.183 6.141-3.548 6.141h-1.418V1.084Zm-28.379 13.464c0 12.047-.946 13.937-3.311 13.937-2.128 0-3.074-1.653-3.074-13.7 0-11.575.946-13.465 3.074-13.465 2.365-.236 3.311 1.653 3.311 13.228Zm4.73.236c0-8.031-2.601-14.645-7.804-14.645s-7.804 6.614-7.804 14.646c0 8.03 2.601 14.645 7.804 14.645 5.203.236 7.804-6.378 7.804-14.646ZM245.254 3.21c0-1.182.237-1.654 1.183-1.654l.946-.236V.61h-8.75v.709l.946.236c.946.236 1.419.472 1.419 1.654v20.55c0 2.835-.237 5.198-2.365 5.198-1.419 0-2.365-.945-2.365-1.89.236-1.417 2.365-1.181 2.601-3.307.237-1.418-.946-2.126-1.655-2.362-1.419-.237-2.838.944-2.838 3.07 0 2.835 1.892 5.433 4.966 5.433 3.548 0 6.149-2.362 6.149-6.85l-.237-19.842Zm-141.655 0c0-1.182.473-1.654 1.182-1.654l1.183-.236V.61h-8.75v.709l.946.236c.946.236 1.182.472 1.182 1.654v23.858c0 1.181-.473 1.653-1.655 1.653-1.419 0-1.656-.472-2.365-3.07L89.882.139h-1.655l-5.202 24.567c-.473 2.834-.946 3.307-2.129 3.78l-.71.235v.71H86.1v-.71l-.946-.236c-1.182-.236-1.655-.945-.946-4.016l3.075-15.59 3.31 16.772c.473 2.362.473 2.834-1.419 3.307l-.946.236v.709h22.703v-9.685h-.709c-.473 4.488-1.419 8.503-4.967 8.503h-1.655V3.21Zm118.007-2.126h.946c2.601 0 3.547 4.252 3.784 8.504h.709V-.097h-15.372v9.685h.71c.236-4.489 1.182-8.504 3.784-8.504h.946v25.275c0 1.181-.473 1.654-1.183 1.89l-1.182.236v.709h8.986v-.709l-1.419-.236c-.709-.236-1.182-.472-1.182-1.653l.473-25.512Zm-19.392 13.7h1.419c1.892 0 2.365.71 2.838 5.434h.709V8.643h-.709c-.473 3.543-.946 5.196-2.838 5.196h-1.419V1.32h2.838c3.311 0 4.02 4.017 4.493 8.505h.709V.139h-14.425v.708l.946.237c.946.236 1.182.945 1.182 1.89v23.622c0 1.18-.473 1.653-1.182 1.89l-.946.235v.71h14.898v-9.686h-.473c-.473 4.488-.946 8.504-4.729 8.504h-2.838l-.473-13.464Zm-15.845 0h1.419c1.892 0 2.365.71 2.838 5.434h.71V8.643h-.71c-.473 3.543-.946 5.196-2.838 5.196h-1.419V1.32h2.838c3.311 0 4.02 4.253 4.493 8.505h.71V.139h-14.899v.708l1.419.237c.946.236 1.183.945 1.183 1.89v23.622c0 1.18-.473 1.653-1.183 1.89l-.946.235v.71h14.899v-9.686h-.71c-.473 4.488-.946 8.504-4.729 8.504h-2.838V15.021h-.237v-.237Zm-17.5-13.7h1.183c1.655 0 3.311 1.18 3.311 6.614 0 5.433-1.183 6.141-3.548 6.141h-.946V1.084Zm-6.385 28.346h8.514v-.709l-.946-.236c-.946-.236-1.183-.708-1.183-1.89V15.258h1.656c1.182 0 1.892.472 1.892 2.835l.236 5.433c.237 4.724 1.655 6.141 4.02 6.141 2.365 0 3.075-1.653 3.075-4.015v-.945h-.946v.708c0 1.654-.237 2.599-.71 2.599s-.473-.473-.709-2.363l-.237-3.779c-.236-5.197-.946-6.614-4.729-7.323 3.547-.945 5.675-3.543 5.675-7.086 0-4.725-3.784-7.087-7.331-7.087h-8.04v.709l.946.236c.946.236 1.182.472 1.182 1.653v23.623c0 1.18-.473 1.653-1.182 1.89l-.946.235v.945h-.237v-.236Zm-6.385-28.346h.946c2.601 0 3.547 4.252 3.784 8.504h.709V-.097h-15.371v9.685h.709c.237-4.489 1.182-8.504 3.784-8.504h.946v25.275c0 1.181-.473 1.654-1.183 1.89l-1.182.236v.709h8.986v-.709l-1.182-.236c-1.182-.236-1.182-1.181-1.182-1.89V1.084h.236Zm-9.696 20.787c0-8.504-9.459-10.866-9.459-17.48 0-1.418.473-3.307 2.601-3.307 3.074 0 4.257 4.015 4.73 8.74h.709V.139h-.473c-.236.945-.473 1.417-1.182 1.417-.946 0-1.419-1.417-3.784-1.417-3.547 0-5.912 3.07-5.912 6.85 0 7.087 9.459 10.158 9.459 17.008 0 3.07-1.419 4.724-3.311 4.724-2.837 0-4.729-3.307-5.202-8.74h-.71v9.685h.473c.473-1.417.946-1.417 1.419-1.417.71 0 1.656 1.654 4.02 1.654 3.311-.473 6.622-3.544 6.622-8.032ZM118.498 3.21c0-1.182.473-1.654 1.182-1.654l1.183-.236V.61h-8.75v.709l.945.236c.946.236 1.183.472 1.183 1.654v23.622c0 1.18-.473 1.653-1.183 1.89l-.945.236v.708h13.716v-9.685h-.71c-.473 4.488-1.419 8.504-4.966 8.504h-1.655V3.21ZM90.356 21.635v-1.181H84.68l-.236 1.18h5.912ZM65.76 29.43h1.892l4.02-21.024H71.2l4.257 21.024h1.42l5.202-24.567c.473-2.598.946-3.543 1.892-3.78l.71-.236V.14h-5.913v.708l.946.237c1.182.236 1.655.944.946 4.015l-3.311 16.536h.473l-3.31-17.48c-.237-1.654-.474-3.071.945-3.308l.946-.236v-.708h-8.04V.61l.472.236c.947.237.947.709 1.42 2.363l1.418 6.378-.236-3.78-2.838 15.354h.473l-3.31-17.007c-.474-1.654-.474-3.071.945-3.308l.71-.236v-.708H59.14V.61l.709.236c.71.237 1.183.473 1.655 2.835l4.257 25.748ZM43.06 14.784h1.418c1.892 0 2.365.71 2.838 5.434h.71V8.643h-.71c-.473 3.543-.946 5.196-2.838 5.196H43.06V1.32h2.837c3.311 0 4.02 4.253 4.494 8.505h.709V.139H36.673v.708l.946.237c.946.236 1.183.945 1.183 1.89v23.622c0 1.18-.473 1.653-1.183 1.89l-.946.235v.71H51.81v-9.686h-.71c-.473 4.488-.946 8.504-4.73 8.504h-2.837V15.021h-.473v-.237ZM16.336 29.43h8.513v-.709l-.946-.236c-.71-.236-1.182-.708-1.182-1.89V15.022h6.385v11.575c0 1.18-.473 1.653-1.183 1.89l-.946.235v.71h8.514v-.71l-.946-.236c-.946-.236-1.183-.708-1.183-1.89V2.974c0-1.18.474-1.653 1.183-1.653l.946-.236v-.71h-8.514v.71l1.183.236c.71.236 1.182.472 1.182 1.653V13.84h-6.385V2.973c0-1.18.473-1.417 1.183-1.653l.945-.236v-.71h-8.75v.71l.947.236c.945.236 1.182.472 1.182 1.653v23.623c0 1.18-.473 1.653-1.182 1.89l-.947.235v.71ZM9.95 1.084h.946c2.602 0 3.548 4.252 3.784 8.504h.71V-.097H.018v9.685h.946C1.2 5.099 2.146 1.084 4.748 1.084h.946v25.275c0 1.181-.473 1.654-1.183 1.89l-1.182.236v.709h8.986v-.709l-1.419-.236c-.71-.236-1.182-.472-1.182-1.653L9.95 1.084Z" fill="#fff"/></svg>